<?xml version="1.0" encoding="UTF-8" standalone="no"?>
<!-- Created with Inkscape (http://www.inkscape.org/) -->

<svg
   width="64"
   height="64"
   viewBox="0 0 64 64"
   version="1.1"
   id="svg1"
   xml:space="preserve"
   inkscape:version="1.4 (86a8ad7, 2024-10-11)"
   sodipodi:docname="app_logo_white.svg"
   inkscape:export-filename="..\assets\images\logos\app_logo_white.png"
   inkscape:export-xdpi="96"
   inkscape:export-ydpi="96"
   xmlns:inkscape="http://www.inkscape.org/namespaces/inkscape"
   xmlns:sodipodi="http://sodipodi.sourceforge.net/DTD/sodipodi-0.dtd"
   xmlns="http://www.w3.org/2000/svg"
   xmlns:svg="http://www.w3.org/2000/svg"><sodipodi:namedview
     id="namedview1"
     pagecolor="#ffffff"
     bordercolor="#000000"
     borderopacity="0.25"
     inkscape:showpageshadow="2"
     inkscape:pageopacity="0.0"
     inkscape:pagecheckerboard="0"
     inkscape:deskcolor="#d1d1d1"
     inkscape:document-units="px"
     showgrid="false"
     inkscape:zoom="5.656854"
     inkscape:cx="40.658642"
     inkscape:cy="47.552933"
     inkscape:window-width="2460"
     inkscape:window-height="1336"
     inkscape:window-x="856"
     inkscape:window-y="48"
     inkscape:window-maximized="0"
     inkscape:current-layer="layer1"
     inkscape:lockguides="false"><inkscape:grid
       id="grid1"
       units="px"
       originx="0"
       originy="0"
       spacingx="1"
       spacingy="1"
       empcolor="#0099e5"
       empopacity="0.30196078"
       color="#0099e5"
       opacity="0.14901961"
       empspacing="5"
       enabled="true"
       visible="false" /></sodipodi:namedview><defs
     id="defs1"><filter
       style="color-interpolation-filters:sRGB;"
       inkscape:label="Blur"
       id="filter21"
       x="-0.0095184514"
       y="-0.013429858"
       width="1.019037"
       height="1.0269055"><feGaussianBlur
         stdDeviation="0.11 0.21"
         result="blur"
         id="feGaussianBlur21" /></filter><filter
       style="color-interpolation-filters:sRGB;"
       inkscape:label="Blur"
       id="filter23"
       x="-0.051999998"
       y="-0.15599999"
       width="1.104"
       height="1.312"><feGaussianBlur
         stdDeviation="1.3 1.3"
         result="blur"
         id="feGaussianBlur23" /></filter></defs><g
     inkscape:label="Ebene 1"
     inkscape:groupmode="layer"
     id="layer1"><path
       style="fill:none;fill-opacity:1;stroke:#ffffff;stroke-width:4;stroke-linecap:round;stroke-linejoin:round;stroke-dasharray:none;stroke-opacity:1"
       d="M 10,32 H 20 L 30,19 35,45 45,32 h 9"
       id="path6"
       sodipodi:nodetypes="cccccc" /><path
       style="fill:#ffffff;stroke-linecap:round;stroke-linejoin:round;stroke-miterlimit:6.7;fill-opacity:1"
       d="m 24.28125,3.171875 c -5.727133,0 -10.527955,2.6995204 -13.367187,7.724609 -1.9114414,3.383015 -5.7472637,10.034497 -7.7187507,13.382813 -2.92843779,4.973573 -2.92843779,10.467833 0,15.441406 1.9714888,3.348315 5.8073111,9.999798 7.7187507,13.382813 2.839231,5.025095 7.620349,7.724609 13.367187,7.724609 3.883068,0 11.71875,4.4e-5 15.437544,4.4e-5 5.753204,0 10.527954,-2.69952 13.367187,-7.724609 1.911441,-3.383014 5.747268,-10.034496 7.718754,-13.382813 2.928437,-4.973571 2.928434,-10.467831 0,-15.441406 C 58.833246,20.931025 54.997377,14.2795 53.085937,10.896484 50.246705,5.8713924 45.553977,3.171875 39.71875,3.171875 c -3.883068,0 -11.71875,2.6e-6 -15.437544,2.6e-6 z m -0.03711,4 c 0.726076,0.00649 7.75586,0 15.511723,0 4.601606,0 7.581951,1.6813854 9.847657,5.691406 2.155139,3.814336 5.349783,9.362225 7.753909,13.445317 2.336868,3.968875 2.336869,7.413943 0,11.382812 -2.00758,3.409616 -5.21575,8.953086 -7.753909,13.445317 -2.265709,4.01002 -5.246236,5.732526 -9.847657,5.691406 -0.721942,-0.0065 -7.755863,0 -15.511723,0 -4.601425,0.04111 -7.581952,-1.681384 -9.847657,-5.691406 -2.155178,-3.814404 -5.3497873,-9.362232 -7.7539089,-13.445317 -2.3368702,-3.968872 -2.3368702,-7.41394 0,-11.382812 2.0075083,-3.409493 5.2157229,-8.95304 7.7539089,-13.445317 2.265708,-4.0100196 5.246235,-5.7325267 9.847657,-5.691406 z"
       id="path13-7-2"
       sodipodi:nodetypes="cssssscsssssccssssssscsssss" /></g></svg>
