<?xml version="1.0" encoding="UTF-8" standalone="no"?>
<!-- Created with Inkscape (http://www.inkscape.org/) -->

<svg
   width="64"
   height="64"
   viewBox="0 0 64 64"
   version="1.1"
   id="svg1"
   xml:space="preserve"
   inkscape:version="1.4 (86a8ad7, 2024-10-11)"
   sodipodi:docname="app_logo.svg"
   inkscape:export-filename="app_logo.png"
   inkscape:export-xdpi="384"
   inkscape:export-ydpi="384"
   xmlns:inkscape="http://www.inkscape.org/namespaces/inkscape"
   xmlns:sodipodi="http://sodipodi.sourceforge.net/DTD/sodipodi-0.dtd"
   xmlns:xlink="http://www.w3.org/1999/xlink"
   xmlns="http://www.w3.org/2000/svg"
   xmlns:svg="http://www.w3.org/2000/svg"><sodipodi:namedview
     id="namedview1"
     pagecolor="#ffffff"
     bordercolor="#000000"
     borderopacity="0.25"
     inkscape:showpageshadow="2"
     inkscape:pageopacity="0.0"
     inkscape:pagecheckerboard="0"
     inkscape:deskcolor="#d1d1d1"
     inkscape:document-units="px"
     showgrid="true"
     inkscape:zoom="11.313708"
     inkscape:cx="32.261748"
     inkscape:cy="35.885671"
     inkscape:window-width="1635"
     inkscape:window-height="1336"
     inkscape:window-x="42"
     inkscape:window-y="28"
     inkscape:window-maximized="0"
     inkscape:current-layer="layer1"
     inkscape:lockguides="false"><inkscape:grid
       id="grid1"
       units="px"
       originx="0"
       originy="0"
       spacingx="1"
       spacingy="1"
       empcolor="#0099e5"
       empopacity="0.30196078"
       color="#0099e5"
       opacity="0.14901961"
       empspacing="5"
       enabled="true"
       visible="true" /></sodipodi:namedview><defs
     id="defs1"><linearGradient
       id="linearGradient39"
       inkscape:collect="always"><stop
         style="stop-color:#7e1b2f;stop-opacity:1;"
         offset="0"
         id="stop38" /><stop
         style="stop-color:#3e0f16;stop-opacity:1;"
         offset="1"
         id="stop39" /></linearGradient><linearGradient
       id="linearGradient37"
       inkscape:collect="always"><stop
         style="stop-color:#7e1b2f;stop-opacity:1;"
         offset="0"
         id="stop36" /><stop
         style="stop-color:#3e0f16;stop-opacity:1;"
         offset="1"
         id="stop37" /></linearGradient><linearGradient
       id="linearGradient35"
       inkscape:collect="always"><stop
         style="stop-color:#3e0f16;stop-opacity:1;"
         offset="0"
         id="stop30" /><stop
         style="stop-color:#911d31;stop-opacity:1;"
         offset="0.25641027"
         id="stop31" /><stop
         style="stop-color:#de0b30;stop-opacity:1;"
         offset="0.53846157"
         id="stop32" /><stop
         style="stop-color:#f9c844;stop-opacity:1;"
         offset="0.84615386"
         id="stop33" /><stop
         style="stop-color:#fc9b4d;stop-opacity:1;"
         offset="0.97222221"
         id="stop34" /><stop
         style="stop-color:#ebd5b3;stop-opacity:1;"
         offset="1"
         id="stop35" /></linearGradient><linearGradient
       id="linearGradient29"
       inkscape:collect="always"><stop
         style="stop-color:#3e0f16;stop-opacity:1;"
         offset="0"
         id="stop22" /><stop
         style="stop-color:#911d31;stop-opacity:1;"
         offset="0.25641027"
         id="stop25" /><stop
         style="stop-color:#de0b30;stop-opacity:1;"
         offset="0.53846157"
         id="stop26" /><stop
         style="stop-color:#f9c844;stop-opacity:1;"
         offset="0.84615386"
         id="stop27" /><stop
         style="stop-color:#fc9b4d;stop-opacity:1;"
         offset="0.97222221"
         id="stop28" /><stop
         style="stop-color:#ebd5b3;stop-opacity:1;"
         offset="1"
         id="stop29" /></linearGradient><linearGradient
       id="linearGradient22"
       inkscape:collect="always"><stop
         style="stop-color:#3e0f16;stop-opacity:1;"
         offset="0"
         id="stop1" /><stop
         style="stop-color:#911d31;stop-opacity:1;"
         offset="0.25641027"
         id="stop2" /><stop
         style="stop-color:#de0b30;stop-opacity:1;"
         offset="0.53846157"
         id="stop3" /><stop
         style="stop-color:#f9c844;stop-opacity:1;"
         offset="0.84615386"
         id="stop10" /><stop
         style="stop-color:#fc9b4d;stop-opacity:1;"
         offset="0.97222221"
         id="stop11" /><stop
         style="stop-color:#ebd5b3;stop-opacity:1;"
         offset="1"
         id="stop18" /></linearGradient><linearGradient
       id="linearGradient20"
       inkscape:collect="always"><stop
         style="stop-color:#ffffff;stop-opacity:0.91871923;"
         offset="0"
         id="stop20" /><stop
         style="stop-color:#ffffff;stop-opacity:0;"
         offset="1"
         id="stop21" /></linearGradient><linearGradient
       id="linearGradient12"
       inkscape:collect="always"><stop
         style="stop-color:#3e0f16;stop-opacity:1;"
         offset="0"
         id="stop12" /><stop
         style="stop-color:#911d31;stop-opacity:1;"
         offset="0.25641027"
         id="stop15" /><stop
         style="stop-color:#de0b30;stop-opacity:1;"
         offset="0.53846157"
         id="stop14" /><stop
         style="stop-color:#f9c844;stop-opacity:1;"
         offset="0.84615386"
         id="stop16" /><stop
         style="stop-color:#fc9b4d;stop-opacity:1;"
         offset="0.97222221"
         id="stop17" /><stop
         style="stop-color:#ebd5b3;stop-opacity:1;"
         offset="1"
         id="stop13" /></linearGradient><linearGradient
       id="linearGradient7"
       inkscape:collect="always"><stop
         style="stop-color:#7e1b2f;stop-opacity:1;"
         offset="0"
         id="stop8" /><stop
         style="stop-color:#3e0f16;stop-opacity:1;"
         offset="1"
         id="stop9" /></linearGradient><linearGradient
       id="linearGradient4"
       inkscape:collect="always"><stop
         style="stop-color:#f8c72b;stop-opacity:1;"
         offset="0"
         id="stop4" /><stop
         style="stop-color:#de0b30;stop-opacity:1;"
         offset="0.42804697"
         id="stop24" /><stop
         style="stop-color:#de0b30;stop-opacity:1;"
         offset="0.50954479"
         id="stop6" /><stop
         style="stop-color:#911d31;stop-opacity:1;"
         offset="0.77606463"
         id="stop23" /><stop
         style="stop-color:#431119;stop-opacity:1;"
         offset="0.98531568"
         id="stop5" /><stop
         style="stop-color:#3c0b14;stop-opacity:1;"
         offset="1"
         id="stop7" /></linearGradient><linearGradient
       inkscape:collect="always"
       xlink:href="#linearGradient4"
       id="linearGradient5"
       x1="2.000001"
       y1="22"
       x2="11"
       y2="49"
       gradientUnits="userSpaceOnUse"
       gradientTransform="translate(47,-4)" /><linearGradient
       inkscape:collect="always"
       xlink:href="#linearGradient39"
       id="linearGradient9"
       x1="-14.671916"
       y1="61"
       x2="-12"
       y2="59"
       gradientUnits="userSpaceOnUse"
       gradientTransform="translate(48,-11)" /><linearGradient
       inkscape:collect="always"
       xlink:href="#linearGradient7"
       id="linearGradient10"
       gradientUnits="userSpaceOnUse"
       x1="-14.671916"
       y1="61"
       x2="-12"
       y2="59"
       gradientTransform="translate(33,-6)" /><linearGradient
       inkscape:collect="always"
       xlink:href="#linearGradient37"
       id="linearGradient11"
       gradientUnits="userSpaceOnUse"
       x1="-14.671916"
       y1="61"
       x2="-12"
       y2="59"
       gradientTransform="translate(63,-16)" /><linearGradient
       inkscape:collect="always"
       xlink:href="#linearGradient35"
       id="linearGradient13"
       x1="-24"
       y1="65"
       x2="-10"
       y2="29"
       gradientUnits="userSpaceOnUse"
       gradientTransform="translate(68.000001,-26)" /><linearGradient
       inkscape:collect="always"
       xlink:href="#linearGradient29"
       id="linearGradient17"
       gradientUnits="userSpaceOnUse"
       x1="-22"
       y1="60"
       x2="-10"
       y2="29"
       gradientTransform="translate(53.000001,-14)" /><linearGradient
       inkscape:collect="always"
       xlink:href="#linearGradient22"
       id="linearGradient18"
       gradientUnits="userSpaceOnUse"
       gradientTransform="translate(37.982472,-6.23689)"
       x1="-22"
       y1="57.5"
       x2="-10"
       y2="29" /><linearGradient
       inkscape:collect="always"
       xlink:href="#linearGradient12"
       id="linearGradient19"
       gradientUnits="userSpaceOnUse"
       gradientTransform="translate(23.000001,6)"
       x1="-19"
       y1="50.558846"
       x2="-10"
       y2="29" /><linearGradient
       inkscape:collect="always"
       xlink:href="#linearGradient20"
       id="linearGradient21"
       x1="-40"
       y1="53"
       x2="-33"
       y2="72"
       gradientUnits="userSpaceOnUse"
       gradientTransform="translate(68.000001,-26)" /><filter
       style="color-interpolation-filters:sRGB;"
       inkscape:label="Blur"
       id="filter21"
       x="-0.0095184514"
       y="-0.013429858"
       width="1.019037"
       height="1.0269055"><feGaussianBlur
         stdDeviation="0.11 0.21"
         result="blur"
         id="feGaussianBlur21" /></filter><filter
       style="color-interpolation-filters:sRGB;"
       inkscape:label="Blur"
       id="filter23"
       x="-0.051999998"
       y="-0.15599999"
       width="1.104"
       height="1.312"><feGaussianBlur
         stdDeviation="1.3 1.3"
         result="blur"
         id="feGaussianBlur23" /></filter></defs><g
     inkscape:label="Ebene 1"
     inkscape:groupmode="layer"
     id="layer1"><path
       style="fill:#5a1321;fill-opacity:1;stroke:none;stroke-width:0.5;stroke-linecap:round;stroke-linejoin:round;stroke-dasharray:none;stroke-opacity:0.540958;filter:url(#filter23)"
       d="m 3.000001,57 54,-15 6,3 -51,17 z"
       id="path23"
       sodipodi:nodetypes="ccccc" /><path
       id="path1-8-6"
       style="fill:url(#linearGradient13);stroke:none;stroke-width:12;stroke-linecap:round;stroke-linejoin:round;stroke-opacity:0"
       d="M 50.01753,1.23689 C 47.721417,2.02315 46.002601,4.632325 46.000001,7 c -0.0012,1.182503 0,34 0,34 l 9,5 7,-9 V 7 c 0,-4 -7.390529,-7.335532 -11.982471,-5.76311 z"
       sodipodi:nodetypes="sccccss" /><path
       style="fill:url(#linearGradient11);stroke:none;stroke-width:0;stroke-linecap:round;stroke-linejoin:round;stroke-dasharray:none;stroke-opacity:0"
       d="m 55,45 -10,-5 1,8 z"
       id="path7-42"
       sodipodi:nodetypes="cccc" /><path
       id="path1-8-6-6"
       style="fill:url(#linearGradient17);fill-opacity:1;stroke:none;stroke-width:12;stroke-linecap:round;stroke-linejoin:round;stroke-opacity:0"
       d="M 35.01753,13.23689 C 32.721417,14.02315 31.002601,16.632325 31.000001,19 c -0.0012,1.182503 0,27 0,27 l 9,5 7,-9 V 19 c 0,-4 -7.390529,-7.335532 -11.982471,-5.76311 z"
       sodipodi:nodetypes="sccccss" /><path
       id="path1-8-6-6-9"
       style="fill:url(#linearGradient18);fill-opacity:1;stroke:none;stroke-width:12;stroke-linecap:round;stroke-linejoin:round;stroke-opacity:0"
       d="M 20.01753,21.23689 C 17.721417,22.02315 16.002601,24.632325 16.000001,27 c -0.0012,1.182503 0,24 0,24 l 8,4 8,-7.5 V 27 c 0,-4 -7.390529,-7.335532 -11.982471,-5.76311 z"
       sodipodi:nodetypes="sccccss" /><path
       id="path1-8-6-6-9-4"
       style="fill:url(#linearGradient19);fill-opacity:1;stroke:none;stroke-width:12;stroke-linecap:round;stroke-linejoin:round;stroke-opacity:0"
       d="M 5.01753,33.23689 C 2.721417,34.02315 1.002601,36.632325 1.000001,39 c -0.0012,1.182503 0,8.368782 0,14 0,2 0.299647,3.149823 2,4 4,2 8,4 11,3 l 3,-1 V 39 c 0,-4 -7.390529,-7.335532 -11.982471,-5.76311 z"
       sodipodi:nodetypes="scssccss" /><path
       style="fill:url(#linearGradient9);stroke:none;stroke-width:0;stroke-linecap:round;stroke-linejoin:round;stroke-dasharray:none;stroke-opacity:0"
       d="m 40,50 -10,-5 1,8 z"
       id="path7"
       sodipodi:nodetypes="cccc" /><path
       style="fill:url(#linearGradient10);stroke:none;stroke-width:0;stroke-linecap:round;stroke-linejoin:round;stroke-dasharray:none;stroke-opacity:0"
       d="m 25,55 -10,-5 1,8 z"
       id="path7-4"
       sodipodi:nodetypes="cccc" /><path
       id="path1-8"
       style="fill:url(#linearGradient5);fill-opacity:1;stroke:none;stroke-width:12;stroke-linecap:round;stroke-linejoin:round;stroke-opacity:0"
       d="M 57.339844,4.244141 C 55.044745,5.033355 53.0026,7.632326 53,10.000001 52.9988,11.182504 53,44 53,44 l -6,2 V 19 C 47,16.632355 44.634943,15.452972 42.339844,16.242187 40.044745,17.031401 38.002553,19.632326 38,22 c -0.0012,1.140271 -8e-5,25.21739 0,27 l -6,2 V 27 C 32,24.632355 29.634942,23.454927 27.339844,24.24414 25.044745,25.033354 23.0026,27.632326 23,30 c -0.0011,1.091543 -1.5e-4,20.740269 0,24 l -6,2 V 39 C 17,36.632355 14.634943,35.454926 12.339844,36.24414 10.044745,37.033355 8.0026,39.632326 8,42 c -0.0012,1.182504 0,15 0,15 0,3 4.076462,3.641178 6,3 0,0 30.000001,-9.999998 45.000001,-15 C 62,44 62,41.603417 62,39 V 7 C 62,4.500632 59.477718,3.508989 57.339844,4.244141 Z"
       sodipodi:nodetypes="scccsscccsscccsscccssss"
       inkscape:label="front" /><path
       id="path1-8-9"
       style="fill:none;fill-opacity:1;stroke:url(#linearGradient21);stroke-width:0.5;stroke-linecap:round;stroke-linejoin:round;stroke-dasharray:none;stroke-opacity:0.540958;filter:url(#filter21)"
       d="M 57.339844,4.244141 C 55.044745,5.033355 53.0026,7.632326 53,10.000001 52.9988,11.182504 53,44 53,44 l -6,2 V 19 C 47,16.632355 44.634943,15.452972 42.339844,16.242187 40.044745,17.031401 38.002553,19.632326 38,22 c -0.0012,1.140271 -8e-5,25.21739 0,27 l -6,2 V 27 C 32,24.632355 29.63494,23.454927 27.33984,24.24414 25.04475,25.033354 23.0026,27.632326 23,30 c -0.001,1.091543 -1.5e-4,20.740269 0,24 l -6,2 V 39 C 17,36.632355 14.63494,35.454926 12.33984,36.24414 10.04475,37.033355 8.0026,39.632326 8,42 c -0.001,1.182504 0,15 0,15 0,3 4.07646,3.641178 6,3 0,0 30.000001,-9.999998 45.000001,-15 C 62,44 62,41.603417 62,39 V 7 C 62,4.500632 59.477718,3.508989 57.339844,4.244141 Z"
       sodipodi:nodetypes="scccsscccsscccsscccssss"
       inkscape:label="heller_rand" /></g></svg>
