<?xml version="1.0" encoding="UTF-8" standalone="no"?>
<!-- Created with Inkscape (http://www.inkscape.org/) -->

<svg
   width="64"
   height="64"
   viewBox="0 0 64 64"
   version="1.1"
   id="svg1"
   xml:space="preserve"
   inkscape:version="1.4 (86a8ad7, 2024-10-11)"
   sodipodi:docname="bar_logo.svg"
   inkscape:export-filename="app_logo.png"
   inkscape:export-xdpi="384"
   inkscape:export-ydpi="384"
   xmlns:inkscape="http://www.inkscape.org/namespaces/inkscape"
   xmlns:sodipodi="http://sodipodi.sourceforge.net/DTD/sodipodi-0.dtd"
   xmlns:xlink="http://www.w3.org/1999/xlink"
   xmlns="http://www.w3.org/2000/svg"
   xmlns:svg="http://www.w3.org/2000/svg"><sodipodi:namedview
     id="namedview1"
     pagecolor="#ffffff"
     bordercolor="#000000"
     borderopacity="0.25"
     inkscape:showpageshadow="2"
     inkscape:pageopacity="0.0"
     inkscape:pagecheckerboard="0"
     inkscape:deskcolor="#d1d1d1"
     inkscape:document-units="px"
     showgrid="true"
     inkscape:zoom="4"
     inkscape:cx="-71.5"
     inkscape:cy="28.375"
     inkscape:window-width="3440"
     inkscape:window-height="1417"
     inkscape:window-x="-8"
     inkscape:window-y="-8"
     inkscape:window-maximized="1"
     inkscape:current-layer="layer1"
     inkscape:lockguides="false"><inkscape:grid
       id="grid1"
       units="px"
       originx="0"
       originy="0"
       spacingx="1"
       spacingy="1"
       empcolor="#0099e5"
       empopacity="0.30196078"
       color="#0099e5"
       opacity="0.14901961"
       empspacing="5"
       enabled="true"
       visible="true" /></sodipodi:namedview><defs
     id="defs1"><linearGradient
       id="linearGradient20"
       inkscape:collect="always"><stop
         style="stop-color:#ffffff;stop-opacity:0.91871923;"
         offset="0"
         id="stop20" /><stop
         style="stop-color:#ffffff;stop-opacity:0;"
         offset="1"
         id="stop21" /></linearGradient><linearGradient
       id="linearGradient12"
       inkscape:collect="always"><stop
         style="stop-color:#280243;stop-opacity:1;"
         offset="0"
         id="stop12" /><stop
         style="stop-color:#6d0045;stop-opacity:1;"
         offset="0.25641027"
         id="stop15" /><stop
         style="stop-color:#e45402;stop-opacity:1;"
         offset="0.53846157"
         id="stop14" /><stop
         style="stop-color:#f9c844;stop-opacity:1;"
         offset="0.84615386"
         id="stop16" /><stop
         style="stop-color:#fc9b4d;stop-opacity:1;"
         offset="0.97222221"
         id="stop17" /><stop
         style="stop-color:#ebd5b3;stop-opacity:1;"
         offset="1"
         id="stop13" /></linearGradient><linearGradient
       id="linearGradient7"
       inkscape:collect="always"><stop
         style="stop-color:#6a1c8c;stop-opacity:1;"
         offset="0"
         id="stop8" /><stop
         style="stop-color:#450e69;stop-opacity:1;"
         offset="1"
         id="stop9" /></linearGradient><linearGradient
       id="linearGradient4"
       inkscape:collect="always"><stop
         style="stop-color:#f8c72b;stop-opacity:1;"
         offset="0"
         id="stop4" /><stop
         style="stop-color:#f74488;stop-opacity:1;"
         offset="0.42804697"
         id="stop24" /><stop
         style="stop-color:#df3098;stop-opacity:1;"
         offset="0.50954479"
         id="stop6" /><stop
         style="stop-color:#991e98;stop-opacity:1;"
         offset="0.77606463"
         id="stop23" /><stop
         style="stop-color:#601a7d;stop-opacity:1;"
         offset="0.98531568"
         id="stop5" /><stop
         style="stop-color:#4c1562;stop-opacity:1;"
         offset="1"
         id="stop7" /></linearGradient><linearGradient
       inkscape:collect="always"
       xlink:href="#linearGradient4"
       id="linearGradient5"
       x1="2.000001"
       y1="22"
       x2="11"
       y2="49"
       gradientUnits="userSpaceOnUse"
       gradientTransform="translate(-21.000001,22)" /><linearGradient
       inkscape:collect="always"
       xlink:href="#linearGradient7"
       id="linearGradient9"
       x1="-14.671916"
       y1="61"
       x2="-12"
       y2="59"
       gradientUnits="userSpaceOnUse"
       gradientTransform="translate(-20.000001,15)" /><linearGradient
       inkscape:collect="always"
       xlink:href="#linearGradient7"
       id="linearGradient10"
       gradientUnits="userSpaceOnUse"
       x1="-14.671916"
       y1="61"
       x2="-12"
       y2="59"
       gradientTransform="translate(-35.000001,20)" /><linearGradient
       inkscape:collect="always"
       xlink:href="#linearGradient7"
       id="linearGradient11"
       gradientUnits="userSpaceOnUse"
       x1="-14.671916"
       y1="61"
       x2="-12"
       y2="59"
       gradientTransform="translate(-5.000001,10)" /><linearGradient
       inkscape:collect="always"
       xlink:href="#linearGradient12"
       id="linearGradient13"
       x1="-24"
       y1="65"
       x2="-10"
       y2="29"
       gradientUnits="userSpaceOnUse" /><linearGradient
       inkscape:collect="always"
       xlink:href="#linearGradient12"
       id="linearGradient17"
       gradientUnits="userSpaceOnUse"
       x1="-22"
       y1="60"
       x2="-10"
       y2="29"
       gradientTransform="translate(-15,12)" /><linearGradient
       inkscape:collect="always"
       xlink:href="#linearGradient12"
       id="linearGradient18"
       gradientUnits="userSpaceOnUse"
       gradientTransform="translate(-30.017529,19.76311)"
       x1="-22"
       y1="57.5"
       x2="-10"
       y2="29" /><linearGradient
       inkscape:collect="always"
       xlink:href="#linearGradient12"
       id="linearGradient19"
       gradientUnits="userSpaceOnUse"
       gradientTransform="translate(-45,32)"
       x1="-19"
       y1="50.558846"
       x2="-10"
       y2="29" /><linearGradient
       inkscape:collect="always"
       xlink:href="#linearGradient20"
       id="linearGradient21"
       x1="-40"
       y1="53"
       x2="-33"
       y2="72"
       gradientUnits="userSpaceOnUse" /><filter
       style="color-interpolation-filters:sRGB;"
       inkscape:label="Blur"
       id="filter21"
       x="-0.0095184514"
       y="-0.013429858"
       width="1.019037"
       height="1.0269055"><feGaussianBlur
         stdDeviation="0.11 0.21"
         result="blur"
         id="feGaussianBlur21" /></filter><filter
       style="color-interpolation-filters:sRGB;"
       inkscape:label="Blur"
       id="filter23"
       x="-0.051999998"
       y="-0.15599999"
       width="1.104"
       height="1.312"><feGaussianBlur
         stdDeviation="1.3 1.3"
         result="blur"
         id="feGaussianBlur23" /></filter></defs><g
     inkscape:label="Ebene 1"
     inkscape:groupmode="layer"
     id="layer1"><g
       id="g24"
       transform="translate(68.000001,-26)"><path
         style="fill:#601a7d;fill-opacity:1;stroke:none;stroke-width:0.5;stroke-linecap:round;stroke-linejoin:round;stroke-dasharray:none;stroke-opacity:0.540958;filter:url(#filter23)"
         d="m -65,83 54,-15 6,3 -51,17 z"
         id="path23"
         sodipodi:nodetypes="ccccc" /><path
         id="path1-8-6"
         style="fill:url(#linearGradient13);stroke:none;stroke-width:12;stroke-linecap:round;stroke-linejoin:round;stroke-opacity:0"
         d="M -17.982471,27.23689 C -20.278584,28.02315 -21.9974,30.632325 -22,33 c -0.0012,1.182503 0,34 0,34 l 9,5 7,-9 V 33 c 0,-4 -7.390529,-7.335532 -11.982471,-5.76311 z"
         sodipodi:nodetypes="sccccss" /><path
         style="fill:url(#linearGradient11);stroke:none;stroke-width:0;stroke-linecap:round;stroke-linejoin:round;stroke-dasharray:none;stroke-opacity:0"
         d="m -13.000001,71 -10,-5 1,8 z"
         id="path7-42"
         sodipodi:nodetypes="cccc" /><path
         id="path1-8-6-6"
         style="fill:url(#linearGradient17);fill-opacity:1;stroke:none;stroke-width:12;stroke-linecap:round;stroke-linejoin:round;stroke-opacity:0"
         d="M -32.982471,39.23689 C -35.278584,40.02315 -36.9974,42.632325 -37,45 c -0.0012,1.182503 0,27 0,27 l 9,5 7,-9 V 45 c 0,-4 -7.390529,-7.335532 -11.982471,-5.76311 z"
         sodipodi:nodetypes="sccccss" /><path
         id="path1-8-6-6-9"
         style="fill:url(#linearGradient18);fill-opacity:1;stroke:none;stroke-width:12;stroke-linecap:round;stroke-linejoin:round;stroke-opacity:0"
         d="M -47.982471,47.23689 C -50.278584,48.02315 -51.9974,50.632325 -52,53 c -0.0012,1.182503 0,24 0,24 l 8,4 8,-7.5 V 53 c 0,-4 -7.390529,-7.335532 -11.982471,-5.76311 z"
         sodipodi:nodetypes="sccccss" /><path
         id="path1-8-6-6-9-4"
         style="fill:url(#linearGradient19);fill-opacity:1;stroke:none;stroke-width:12;stroke-linecap:round;stroke-linejoin:round;stroke-opacity:0"
         d="M -62.982471,59.23689 C -65.278584,60.02315 -66.9974,62.632325 -67,65 c -0.0012,1.182503 0,8.368782 0,14 0,2 0.299647,3.149823 2,4 4,2 8,4 11,3 l 3,-1 V 65 c 0,-4 -7.390529,-7.335532 -11.982471,-5.76311 z"
         sodipodi:nodetypes="scssccss" /><path
         style="fill:url(#linearGradient9);stroke:none;stroke-width:0;stroke-linecap:round;stroke-linejoin:round;stroke-dasharray:none;stroke-opacity:0"
         d="m -28.000001,76 -10,-5 1,8 z"
         id="path7"
         sodipodi:nodetypes="cccc" /><path
         style="fill:url(#linearGradient10);stroke:none;stroke-width:0;stroke-linecap:round;stroke-linejoin:round;stroke-dasharray:none;stroke-opacity:0"
         d="m -43.000001,81 -10,-5 1,8 z"
         id="path7-4"
         sodipodi:nodetypes="cccc" /><path
         id="path1-8"
         style="fill:url(#linearGradient5);fill-opacity:1;stroke:none;stroke-width:12;stroke-linecap:round;stroke-linejoin:round;stroke-opacity:0"
         d="m -10.660157,30.244141 c -2.295099,0.789214 -4.337244,3.388185 -4.339844,5.75586 -0.0012,1.182503 0,33.999999 0,33.999999 l -6,2 V 45 c 0,-2.367645 -2.365057,-3.547028 -4.660156,-2.757813 -2.295099,0.789214 -4.337291,3.390139 -4.339844,5.757813 -0.0012,1.140271 -8e-5,25.21739 0,27 l -6,2 V 53 c 0,-2.367645 -2.365058,-3.545073 -4.660156,-2.75586 -2.295099,0.789214 -4.337244,3.388186 -4.339844,5.75586 -0.0011,1.091543 -1.5e-4,20.740269 0,24 l -6,2 V 65 c 0,-2.367645 -2.365057,-3.545074 -4.660156,-2.75586 -2.295099,0.789215 -4.337244,3.388186 -4.339844,5.75586 -0.0012,1.182504 0,15 0,15 0,3 4.076462,3.641178 6,3 0,0 30.000001,-9.999998 45.000001,-15 2.999999,-1 2.999999,-3.396583 2.999999,-6 V 33 c 0,-2.499368 -2.522282,-3.491011 -4.660156,-2.755859 z"
         sodipodi:nodetypes="scccsscccsscccsscccssss"
         inkscape:label="front" /><path
         id="path1-8-9"
         style="fill:none;fill-opacity:1;stroke:url(#linearGradient21);stroke-width:0.5;stroke-linecap:round;stroke-linejoin:round;stroke-dasharray:none;stroke-opacity:0.540958;filter:url(#filter21)"
         d="m -10.660157,30.244141 c -2.295099,0.789214 -4.337244,3.388185 -4.339844,5.75586 -0.0012,1.182503 0,33.999999 0,33.999999 l -6,2 V 45 c 0,-2.367645 -2.365057,-3.547028 -4.660156,-2.757813 -2.295099,0.789214 -4.337291,3.390139 -4.339844,5.757813 -0.0012,1.140271 -8e-5,25.21739 0,27 l -6,2 V 53 c 0,-2.367645 -2.36506,-3.545073 -4.66016,-2.75586 -2.29509,0.789214 -4.33724,3.388186 -4.33984,5.75586 -0.001,1.091543 -1.5e-4,20.740269 0,24 l -6,2 V 65 c 0,-2.367645 -2.36506,-3.545074 -4.66016,-2.75586 -2.29509,0.789215 -4.33724,3.388186 -4.33984,5.75586 -0.001,1.182504 0,15 0,15 0,3 4.07646,3.641178 6,3 0,0 30.000001,-9.999998 45.000001,-15 2.999999,-1 2.999999,-3.396583 2.999999,-6 V 33 c 0,-2.499368 -2.522282,-3.491011 -4.660156,-2.755859 z"
         sodipodi:nodetypes="scccsscccsscccsscccssss"
         inkscape:label="heller_rand" /></g></g></svg>
